<svg xmlns="http://www.w3.org/2000/svg" version="1.1" viewBox="-5.0 -10.0 110.0 135.0">
 <path d="m80.211 71.254h13.207c-0.35156-3.4844-1.9102-6.6133-4.2539-8.957s-5.4727-3.9062-8.957-4.2578v13.211zm-69.867-8.5898h30.48c1.7266 0 3.3516 0.35156 4.8281 1.0312 1.4727 0.67969 2.7891 1.6875 3.9141 3.0078l3.8828 4.5508h23.762v-14.344l-1.2617-26.238-0.003907-0.039063-0.22656-4.6914c-7.457 0.51172-9.625 5.1055-9.625 10.711 0 5.1289 1.6758 11.129 3.0117 15.914 0.32031 1.1445 0.62109 2.2305 0.89844 3.3125l0.039063 0.13281c0.085937 0.32812 0.12109 0.65234 0.12109 0.97266 0 1.1484-0.51172 2.1875-1.3047 3-0.6875 0.70312-1.6133 1.2383-2.5977 1.5117l-0.13281 0.039062c-0.44922 0.11328-0.91406 0.17578-1.3711 0.17578h-10.027c-1.3672 0-2.6523-0.36328-3.7539-1.0273-1.1016-0.66406-2.0195-1.6328-2.6562-2.8438l-7.0391-13.383c-0.60156-1.1445-1.4531-2.0508-2.4766-2.668-1.0156-0.61328-2.2188-0.94531-3.5117-0.94531h-1.6641c-6.4102 0-12.215 2.582-16.43 6.7578l-0.070313 0.074219c-3.8906 3.8906-6.418 9.1523-6.7852 15zm39.176 8.5898-2.2188-2.6055c-0.83984-0.98828-1.8164-1.7383-2.8945-2.2344-1.0742-0.49609-2.2773-0.75-3.5742-0.75h-30.527v5.5898h39.219zm-41.66-46.621c-0.58203-0.58594-0.57812-1.5312 0.007813-2.1133 0.58594-0.58203 1.5312-0.57812 2.1133 0.007813l2.7539 2.7578 1.1094-1.1094 1.0117-1.0156-2.7578-2.7578c-0.58594-0.58594-0.58594-1.5352 0-2.1211 0.58594-0.58594 1.5352-0.58594 2.1211 0l2.875 2.875c0.55078 0.55078 0.82812 1.2812 0.82812 2.0039 0 0.72656-0.27734 1.4531-0.82812 2.0078l-0.11719 0.11719 2.1289 2.1289 2.3047-2.3008c-0.32812-0.66797-0.47266-1.4141-0.42188-2.1914 0.082031-1.1328 0.60156-2.2969 1.6367-3.332 1.0234-1.0234 2.4102-1.7656 3.7305-2.0352 1.4492-0.30469 2.8672-0.066407 3.8359 0.89844 0.96484 0.96484 1.2031 2.3867 0.89844 3.8359-0.27344 1.3164-1.0156 2.707-2.0352 3.7305-1.0391 1.0391-2.2031 1.5586-3.332 1.6367-0.77344 0.054688-1.5195-0.09375-2.1875-0.42188l-2.3047 2.3047 4.1016 4.1016c0.58594 0.58594 0.58594 1.5352 0 2.1211-0.58594 0.58594-1.5352 0.58594-2.1211 0l-4.1016-4.1016-4.1016 4.1016c-0.58594 0.58594-1.5352 0.58594-2.1211 0-0.58594-0.58594-0.58594-1.5352 0-2.1211l4.1016-4.1016-2.1289-2.1289-0.11719 0.11719c-0.55078 0.55078-1.2812 0.82812-2.0039 0.82812-0.72656 0-1.4531-0.27734-2.0078-0.82812l-2.8711-2.8789zm20.305-2.9688c0.10547-0.49609 0.089844-0.92187-0.09375-1.1055-0.18359-0.18359-0.60547-0.19531-1.1055-0.09375-0.76953 0.16016-1.5938 0.60938-2.2188 1.2305-0.49609 0.49609-0.74219 0.98828-0.76953 1.4219-0.027343 0.38281 0.12109 0.76172 0.41016 1.0625v0.003906l0.054687 0.054687h0.003906c0.30078 0.28906 0.67969 0.4375 1.0625 0.41016 0.43359-0.03125 0.92578-0.27734 1.4219-0.76953 0.62109-0.62109 1.0703-1.4492 1.2305-2.2188zm39.707 3.5898c-0.46094-0.25-0.88281-0.5625-1.2461-0.92578l-0.007812-0.007813c-0.96094-0.96484-1.5586-2.2969-1.5586-3.75v-2.2773h-9.7383c-0.82812 0-1.5-0.67188-1.5-1.5s0.67188-1.5 1.5-1.5h10.867c0.11719-0.03125 0.24219-0.046875 0.36719-0.046875h6.7695c0.26562 0 0.52734 0.019531 0.78125 0.058594l0.023437 0.003906 0.011719 0.003906 0.058594 0.011719 0.019531 0.007812c1.1055 0.1875 2.1016 0.72266 2.8633 1.4883 0.96484 0.96094 1.5664 2.293 1.5664 3.7578v3.8203l0.22656 4.7266c1.9375 0.1875 3.7148 0.87891 5.1133 1.9258 1.8281 1.3672 3.0273 3.3398 3.1562 5.582l0.007813 0.16016c0.074218 2.1797-0.87891 4.1797-2.5 5.6562-1.3047 1.1914-3.0469 2.0469-5.0195 2.3789l0.48828 10.195c4.3516 0.33984 8.2656 2.2422 11.172 5.1523 3.2148 3.2148 5.207 7.6641 5.207 12.574 0 0.82812-0.67188 1.5-1.5 1.5h-1.8828c-0.35156 3.3984-1.8789 6.4492-4.1641 8.7383-2.6172 2.6172-6.2383 4.2422-10.238 4.2422-3.9883 0-7.6133-1.6211-10.234-4.2461-2.293-2.2812-3.8164-5.3359-4.168-8.7344h-21.746c-0.35156 3.3984-1.8789 6.4492-4.1641 8.7383l-0.089844 0.082031c-2.6172 2.5703-6.1992 4.1602-10.148 4.1602-4 0-7.6211-1.6211-10.238-4.2422-2.2891-2.2891-3.8125-5.3398-4.1641-8.7383h-4.9609c-0.82812 0-1.5-0.67188-1.5-1.5v-8.6367c0.011719-7.2539 2.957-13.82 7.7148-18.578l0.089844-0.082031c1.8555-1.8398 3.9844-3.4062 6.3203-4.6289h-16.418c-0.82812 0-1.5-0.67188-1.5-1.5v-19.762c0-1.8672 0.76563-3.5703 1.9961-4.8047l0.007813-0.007812c1.2344-1.2305 2.9336-1.9961 4.8008-1.9961h18.016c1.8672 0 3.5742 0.76953 4.8047 1.9961 1.2383 1.2383 2.0039 2.9414 2.0039 4.8086v18.262h0.16406c1.8516 0 3.5781 0.48438 5.0625 1.3789 1.4805 0.89453 2.7148 2.1992 3.5742 3.8398l7.0391 13.383c0.37891 0.71875 0.91406 1.2852 1.5586 1.6758 0.63672 0.38281 1.3906 0.59375 2.2031 0.59375h10.027c0.21484 0 0.43359-0.03125 0.64453-0.085937l0.082032-0.019531c0.47266-0.13672 0.91797-0.39453 1.2461-0.73047 0.26562-0.27344 0.4375-0.58984 0.4375-0.90234l-0.058593-0.35547c-0.23828-0.92578-0.55469-2.0625-0.89063-3.2656-1.3906-4.9727-3.1289-11.207-3.1289-16.707 0-4.7383 1.207-8.918 4.7695-11.391zm2.5039-2.3672h5.2695v-2.3203c0-0.64062-0.26172-1.2188-0.68359-1.6406-0.31641-0.31641-0.72266-0.54688-1.1797-0.64062h-5.7344v2.2773c0 0.64062 0.26172 1.2227 0.67969 1.6367 0.42188 0.42188 1.0039 0.68359 1.6445 0.68359zm-42.047-7.1289h-18.016c-1.0508 0-2 0.42969-2.6875 1.1133-0.69141 0.69141-1.1172 1.6445-1.1172 2.6953v18.262h25.629v-18.262c0-1.0469-0.42969-2-1.1172-2.6914-0.69141-0.69141-1.6445-1.1172-2.6914-1.1172zm39.008 58.488c0.33594 2.5703 1.5195 4.875 3.2656 6.6172 2.0742 2.0781 4.9453 3.3633 8.1172 3.3633s6.043-1.2852 8.1172-3.3633c1.7422-1.7422 2.9297-4.0469 3.2656-6.6172zm12.152-32.441c1.2461-0.26563 2.3359-0.82031 3.1484-1.5664 0.98828-0.90234 1.5703-2.0898 1.5234-3.3594l-0.007812-0.09375c-0.078125-1.3164-0.82031-2.5039-1.9609-3.3555-0.86719-0.65234-1.9609-1.1055-3.1719-1.2891l0.46484 9.6641zm-39.938 32.441h-22.766c0.33594 2.5703 1.5195 4.875 3.2656 6.6172 2.0742 2.0742 4.9453 3.3633 8.1172 3.3633 3.1367 0 5.9805-1.2578 8.0469-3.2891l0.070312-0.074219c1.7422-1.7422 2.9297-4.0469 3.2656-6.6172z"/>
<text x="0.0" y="117.5" font-size="5.0" font-weight="bold" font-family="Arbeit Regular, Helvetica, Arial-Unicode, Arial, Sans-serif" fill="#000000">Created by Relona Creative</text><text x="0.0" y="122.5" font-size="5.0" font-weight="bold" font-family="Arbeit Regular, Helvetica, Arial-Unicode, Arial, Sans-serif" fill="#000000">from Noun Project</text></svg>